<?xml version="1.0" encoding="UTF-8" standalone="no"?>
<!-- Generator: Adobe Illustrator 18.1.1, SVG Export Plug-In . SVG Version: 6.00 Build 0)  -->

<svg
   xmlns:dc="http://purl.org/dc/elements/1.1/"
   xmlns:cc="http://creativecommons.org/ns#"
   xmlns:rdf="http://www.w3.org/1999/02/22-rdf-syntax-ns#"
   xmlns:svg="http://www.w3.org/2000/svg"
   xmlns="http://www.w3.org/2000/svg"
   xmlns:sodipodi="http://sodipodi.sourceforge.net/DTD/sodipodi-0.dtd"
   xmlns:inkscape="http://www.inkscape.org/namespaces/inkscape"
   version="1.1"
   id="Capa_1"
   x="0px"
   y="0px"
   viewBox="0 0 612 612"
   style="enable-background:new 0 0 612 612;"
   xml:space="preserve"
   inkscape:version="0.91 r13725"
   sodipodi:docname="people-2.svg"><metadata
     id="metadata3375"><rdf:RDF><cc:Work
         rdf:about=""><dc:format>image/svg+xml</dc:format><dc:type
           rdf:resource="http://purl.org/dc/dcmitype/StillImage" /><dc:title></dc:title></cc:Work></rdf:RDF></metadata><defs
     id="defs3373"><marker
       inkscape:stockid="Arrow1Lstart"
       orient="auto"
       refY="0.0"
       refX="0.0"
       id="Arrow1Lstart"
       style="overflow:visible"
       inkscape:isstock="true"><path
         id="path5321"
         d="M 0.0,0.0 L 5.0,-5.0 L -12.5,0.0 L 5.0,5.0 L 0.0,0.0 z "
         style="fill-rule:evenodd;stroke:none;stroke-width:1pt;stroke-opacity:1;fill:#666666;fill-opacity:1"
         transform="scale(0.8) translate(12.5,0)" /></marker></defs><sodipodi:namedview
     pagecolor="#ffffff"
     bordercolor="#666666"
     borderopacity="1"
     objecttolerance="10"
     gridtolerance="10"
     guidetolerance="10"
     inkscape:pageopacity="0"
     inkscape:pageshadow="2"
     inkscape:window-width="1920"
     inkscape:window-height="1027"
     id="namedview3371"
     showgrid="false"
     inkscape:zoom="1.0907007"
     inkscape:cx="492.43919"
     inkscape:cy="372.04264"
     inkscape:window-x="-8"
     inkscape:window-y="-8"
     inkscape:window-maximized="1"
     inkscape:current-layer="g3337" /><g
     id="g3337"><path
       d="M 612,306.036 C 612,137.405 474.595,0 305.964,0 137.333,0 0,137.405 0,306.036 c 0,92.881 42.14,176.437 107.698,232.599 0.795,0.795 1.59,1.59 3.108,2.313 C 163.86,585.473 231.804,612 306.759,612 c 73.365,0 141.309,-26.527 194.363,-69.462 3.108,-0.795 5.493,-3.108 7.011,-5.493 C 571.451,480.088 612,398.122 612,306.036 Z m -583.883,0 c 0,-153.018 124.901,-277.919 277.919,-277.919 153.018,0 277.919,124.901 277.919,277.919 0,74.955 -29.635,142.826 -78.063,192.845 -7.806,-36.719 -31.225,-99.169 -103.072,-139.718 16.408,-20.311 25.732,-46.838 25.732,-74.955 0,-67.149 -54.644,-121.793 -121.793,-121.793 -67.149,0 -121.793,54.644 -121.793,121.793 0,28.117 10.119,53.849 25.732,74.955 -72.497,40.549 -95.916,103 -102.928,139.718 C 58.547,449.658 28.117,380.991 28.117,306.036 Z M 220.36,284.93 c 0,-51.536 34.14,-85.676 85.676,-85.676 51.536,0 85.676,34.14 85.676,85.676 0,51.536 -34.14,85.676 -85.676,85.676 -51.536,0 -85.676,-34.14 -85.676,-85.676 z m -83.653,242.093 c 1.59,-22.624 14.022,-99.169 98.374,-142.104 21.106,16.408 42.838,21.732 70.955,21.732 28.117,0 50.644,-6.119 71.75,-22.527 83.556,42.935 94.784,117.89 97.169,142.104 -47.633,38.237 -102.493,57.655 -168.052,57.655 -66.425,0.072 -122.563,-18.552 -170.196,-56.86 z"
       id="path3339"
       style="fill:#f2f2f2;stroke-width:0.1;stroke-miterlimit:4;stroke-dasharray:none"
       inkscape:connector-curvature="0"
       sodipodi:nodetypes="sssccsccssssccsssccssssssccscccc" /></g><g
     id="g3341" /><g
     id="g3343" /><g
     id="g3345" /><g
     id="g3347" /><g
     id="g3349" /><g
     id="g3351" /><g
     id="g3353" /><g
     id="g3355" /><g
     id="g3357" /><g
     id="g3359" /><g
     id="g3361" /><g
     id="g3363" /><g
     id="g3365" /><g
     id="g3367" /><g
     id="g3369" /></svg>